<?xml version="1.0" standalone="no"?>
<!DOCTYPE svg PUBLIC "-//W3C//DTD SVG 20010904//EN"
 "http://www.w3.org/TR/2001/REC-SVG-20010904/DTD/svg10.dtd">
<svg version="1.0" xmlns="http://www.w3.org/2000/svg"
 width="1280.000000pt" height="600.000000pt" viewBox="0 0 1280.000000 600.000000"
 preserveAspectRatio="xMidYMid meet">
<metadata>
Created by potrace 1.15, written by Peter Selinger 2001-2017
</metadata>
<g transform="translate(0.000000,600.000000) scale(0.100000,-0.100000)"
fill="#000000" stroke="none">
<path d="M0 3000 l0 -3000 6400 0 6400 0 0 3000 0 3000 -6400 0 -6400 0 0
-3000z m3514 1226 c82 -48 194 -192 236 -302 44 -120 13 -222 -91 -299 -31
-23 -82 -52 -113 -64 -55 -23 -55 -23 -42 -50 57 -109 111 -323 127 -501 36
-392 -91 -688 -329 -772 -213 -75 -792 -137 -1167 -125 -313 11 -448 52 -571
178 -152 153 -216 345 -216 644 0 88 4 188 9 221 l9 61 -71 6 c-127 11 -202
49 -229 117 -30 75 -14 165 58 315 90 190 215 221 380 95 l65 -50 21 30 c83
116 459 298 745 359 261 57 533 49 732 -20 l58 -20 35 43 c98 121 181 173 264
164 26 -3 67 -16 90 -30z m2012 -335 c92 -56 125 -182 70 -266 -14 -21 -13
-24 5 -41 50 -46 64 -148 29 -220 -12 -24 -38 -54 -63 -70 l-42 -29 -212 -3
-213 -4 0 249 0 249 28 55 c15 31 41 63 61 76 31 21 46 23 170 23 116 0 141
-3 167 -19z m704 -61 l0 -79 -147 -3 -148 -3 -3 -37 -3 -38 150 0 151 0 0 -80
0 -80 -150 0 -150 0 0 -33 c0 -53 10 -57 162 -57 l138 0 0 -81 0 -81 -162 4
c-148 3 -167 5 -203 26 -22 13 -51 40 -65 60 -24 36 -25 43 -28 229 -3 174 -1
195 16 230 21 39 52 72 87 91 12 7 84 12 188 12 l167 0 0 -80z m566 61 c38
-23 77 -74 93 -120 7 -22 11 -121 11 -272 l0 -239 -85 0 -85 0 -2 243 -3 242
-105 0 -105 0 0 -65 0 -65 88 -3 87 -3 0 -79 0 -80 -90 0 -90 0 0 -95 0 -95
-80 0 -80 0 0 258 c0 248 1 258 23 297 12 21 40 52 62 67 39 27 43 27 185 28
125 0 149 -3 176 -19z m674 -2 c78 -48 100 -96 100 -219 0 -93 -7 -118 -43
-157 l-20 -22 22 -18 c15 -13 26 -40 36 -96 24 -126 29 -118 -72 -115 l-88 3
-7 51 c-4 28 -12 63 -17 78 -10 25 -14 26 -86 26 l-75 0 0 80 0 80 78 0 c106
0 114 7 110 95 l-3 70 -110 0 -110 0 -3 -242 -2 -243 -80 0 -80 0 0 253 c0
242 1 255 23 297 12 25 39 57 62 72 39 27 44 27 185 28 131 0 148 -2 180 -21z
m660 -54 l0 -75 -74 0 c-54 0 -79 -4 -90 -16 -9 -8 -16 -17 -16 -18 0 -1 20
-65 45 -142 25 -76 45 -152 45 -167 0 -28 -27 -76 -59 -107 -33 -31 -79 -43
-183 -48 l-108 -5 0 81 0 81 83 3 c109 4 108 0 39 208 -30 91 -33 167 -6 203
10 14 37 37 59 51 36 24 47 26 152 26 l113 0 0 -75z m280 -45 l0 -120 90 0 90
0 0 -85 0 -85 -90 0 -90 0 0 -120 0 -120 -85 0 -85 0 0 325 0 325 85 0 85 0 0
-120z m380 -205 l0 -325 -80 0 -80 0 0 325 0 325 80 0 80 0 0 -325z m559 311
c41 -22 88 -80 100 -123 6 -22 11 -141 11 -275 l0 -238 -80 0 -80 0 0 240 c0
278 8 260 -114 260 -106 0 -106 0 -106 -81 l0 -69 90 0 90 0 0 -80 0 -80 -90
0 -90 0 0 -95 0 -95 -85 0 -85 0 0 239 c0 252 4 281 48 339 47 64 71 72 225
72 101 0 146 -4 166 -14z m686 -12 c55 -37 65 -49 86 -105 34 -89 21 -215 -28
-260 l-23 -23 21 -22 c13 -14 26 -50 35 -96 24 -124 27 -118 -69 -118 l-83 0
-14 68 c-19 98 -13 92 -101 92 l-79 0 0 80 0 79 93 3 92 3 3 79 c2 57 -1 82
-10 87 -15 10 -169 12 -192 3 -14 -5 -16 -37 -16 -250 l0 -244 -85 0 -85 0 0
239 c0 252 4 281 48 339 47 65 71 72 228 72 135 0 143 -1 179 -26z m685 -49
l0 -75 -131 0 c-72 0 -139 -5 -150 -10 -13 -8 -19 -21 -19 -45 l0 -35 150 0
150 0 0 -80 0 -80 -151 0 -150 0 3 -42 3 -43 148 -3 147 -3 0 -80 0 -81 -162
4 c-176 4 -186 7 -245 64 -44 44 -53 87 -53 264 0 206 7 229 90 293 35 27 36
27 203 27 l167 0 0 -75z m560 0 l0 -75 -74 0 c-85 0 -106 -6 -106 -28 0 -17
27 -110 67 -230 27 -83 23 -117 -24 -173 -42 -49 -77 -61 -195 -67 l-108 -5 0
81 0 81 83 3 c78 3 82 4 85 27 2 13 -7 56 -21 95 -45 132 -52 161 -52 213 0
61 22 97 81 130 34 20 54 23 152 23 l112 0 0 -75z m-1050 -1070 l0 -35 75 0
c105 0 115 -11 115 -130 l0 -90 -40 0 -40 0 0 75 0 75 -55 0 -55 0 0 -75 0
-75 -40 0 -40 0 0 145 0 145 40 0 c39 0 40 -1 40 -35z m818 -112 l3 -143 -41
0 -40 0 0 146 0 145 38 -3 37 -3 3 -142z m-5048 107 c0 -29 2 -30 45 -30 45 0
45 0 45 -35 0 -35 0 -35 -45 -35 l-45 0 0 -45 0 -45 45 0 c43 0 45 -1 45 -30
l0 -30 -69 0 c-99 0 -101 3 -101 156 l0 124 40 0 c38 0 40 -2 40 -30z m2790 0
c0 -29 2 -30 45 -30 45 0 45 0 45 -35 0 -35 0 -35 -45 -35 l-45 0 0 -45 0 -45
45 0 c43 0 45 -1 45 -30 l0 -30 -69 0 c-99 0 -101 3 -101 156 l0 124 40 0 c38
0 40 -2 40 -30z m800 0 c0 -29 2 -30 45 -30 45 0 45 0 45 -35 0 -35 0 -35 -45
-35 l-45 0 0 -45 0 -45 45 0 c43 0 45 -1 45 -30 l0 -30 -69 0 c-99 0 -101 3
-101 156 l0 124 40 0 c38 0 40 -2 40 -30z m-4670 -50 c16 -16 20 -33 20 -88 0
-101 -11 -112 -111 -112 l-79 0 0 -45 0 -45 -40 0 -40 0 0 155 0 155 115 0
c102 0 117 -2 135 -20z m289 -6 c15 -19 21 -41 21 -75 l0 -49 -102 -2 -103 -2
103 -3 102 -4 0 -29 0 -30 -119 0 c-149 0 -151 1 -151 110 0 103 9 110 136
110 88 0 94 -1 113 -26z m290 0 c15 -19 21 -41 21 -75 l0 -49 -102 -2 -103 -2
103 -3 102 -4 0 -29 0 -30 -119 0 c-149 0 -151 1 -151 110 0 103 9 110 136
110 88 0 94 -1 113 -26z m261 -9 l0 -35 -65 0 -65 0 0 -75 0 -75 -40 0 -40 0
0 94 c0 120 6 126 127 126 l83 0 0 -35z m609 9 c26 -34 30 -137 5 -172 -14
-20 -23 -22 -119 -22 -131 0 -135 3 -135 110 0 103 9 110 136 110 88 0 94 -1
113 -26z m441 6 c16 -16 20 -33 20 -88 0 -101 -11 -112 -111 -112 l-79 0 0
-45 0 -45 -40 0 -40 0 0 155 0 155 115 0 c102 0 117 -2 135 -20z m289 -6 c15
-19 21 -41 21 -75 l0 -49 -102 -2 -103 -2 103 -3 102 -4 0 -29 0 -30 -119 0
c-149 0 -151 1 -151 110 0 103 9 110 136 110 88 0 94 -1 113 -26z m300 0 c15
-19 21 -41 21 -75 l0 -49 -102 -2 -103 -2 103 -3 102 -4 0 -29 0 -30 -119 0
c-149 0 -151 1 -151 110 0 103 9 110 136 110 88 0 94 -1 113 -26z m251 -9 l0
-35 -65 0 -65 0 0 -75 0 -75 -40 0 -40 0 0 94 c0 120 6 126 127 126 l83 0 0
-35z m440 0 l0 -35 -100 0 -100 0 0 -45 0 -45 100 0 100 0 0 -30 0 -30 -119 0
c-149 0 -151 1 -151 110 0 106 6 110 157 110 l113 0 0 -35z m279 9 c26 -34 30
-137 5 -172 -14 -20 -23 -22 -119 -22 -131 0 -135 3 -135 110 0 103 9 110 136
110 88 0 94 -1 113 -26z m291 6 c17 -17 20 -33 20 -110 l0 -90 -40 0 -40 0 0
75 0 75 -55 0 -55 0 0 -75 0 -75 -40 0 -40 0 0 110 0 110 115 0 c102 0 117 -2
135 -20z m499 -6 c15 -19 21 -41 21 -75 l0 -49 -102 -2 -103 -2 103 -3 102 -4
0 -29 0 -30 -119 0 c-149 0 -151 1 -151 110 0 103 9 110 136 110 88 0 94 -1
113 -26z m301 6 c17 -17 20 -33 20 -110 l0 -90 -40 0 -40 0 0 75 0 75 -55 0
-55 0 0 -75 0 -75 -40 0 -40 0 0 110 0 110 115 0 c102 0 117 -2 135 -20z m632
3 c8 -10 18 -26 21 -35 6 -16 -3 -18 -96 -20 l-102 -1 88 -6 c62 -4 91 -10 97
-21 19 -29 22 -59 8 -87 -13 -28 -14 -28 -122 -31 -116 -3 -136 3 -136 44 0
19 5 24 28 24 l27 0 -25 13 c-20 10 -26 21 -28 59 -4 66 16 78 134 78 74 0 94
-3 106 -17z m596 -3 c19 -18 22 -31 22 -110 l0 -90 -119 0 c-143 0 -151 5
-151 86 l0 54 98 2 97 2 -97 3 -98 4 0 34 0 35 113 0 c100 0 116 -2 135 -20z
m252 -15 l0 -35 -65 0 -65 0 0 -75 0 -75 -40 0 -40 0 0 94 c0 120 6 126 127
126 l83 0 0 -35z m400 15 c17 -17 20 -33 20 -110 l0 -90 -40 0 -40 0 0 75 0
75 -55 0 -55 0 0 -75 0 -75 -40 0 -40 0 0 110 0 110 115 0 c102 0 117 -2 135
-20z m288 4 c21 -14 22 -22 22 -139 0 -155 0 -155 -137 -155 l-93 0 0 35 0 35
75 0 c43 0 75 4 75 10 0 6 -33 10 -79 10 -100 0 -111 11 -111 112 0 96 14 108
135 108 66 0 97 -4 113 -16z m-10550 -355 c-7 -5 -10 -9 -6 -9 3 0 14 -3 24
-7 13 -5 15 -3 9 7 -6 10 -4 12 8 7 10 -3 17 -3 17 2 0 5 14 7 31 5 21 -3 28
0 24 9 -4 6 3 1 14 -12 20 -22 21 -23 21 -2 0 14 5 19 16 14 13 -5 13 -8 2
-15 -8 -6 -1 -7 22 -3 19 3 43 6 53 6 9 0 17 5 17 10 0 6 5 7 10 4 6 -4 8 -10
5 -15 -3 -4 2 -10 10 -14 8 -3 14 0 12 7 -4 20 47 9 66 -16 10 -12 31 -38 47
-58 65 -80 202 -164 315 -194 106 -28 286 -38 570 -32 149 4 308 11 355 17 47
6 126 15 175 21 115 13 252 39 380 70 85 20 180 76 240 140 29 33 59 59 65 59
6 0 8 -5 5 -10 -7 -11 17 -9 25 2 3 4 17 9 32 12 19 3 28 -1 33 -12 6 -15 8
-15 21 2 11 16 17 17 26 8 7 -7 17 -12 22 -12 6 0 4 5 -4 10 -9 6 -10 10 -3
10 6 0 15 -4 18 -10 3 -5 11 -10 16 -10 6 0 7 5 3 11 -5 8 -1 8 14 0 14 -7 23
-8 27 -1 4 6 11 7 17 4 6 -4 5 -10 -3 -15 -8 -5 -9 -9 -3 -9 5 0 19 6 30 14
10 8 23 11 29 7 5 -4 19 -11 29 -15 14 -5 16 -4 8 6 -8 10 -2 13 29 13 25 0
39 -5 39 -12 0 -19 18 -15 23 5 3 11 5 8 6 -9 1 -28 -111 -206 -179 -284 -66
-77 -216 -221 -275 -265 -33 -25 -62 -47 -65 -50 -33 -33 -233 -141 -350 -188
-684 -276 -1473 -74 -1951 498 -50 60 -149 197 -149 206 0 3 -8 18 -19 32 -24
35 -35 72 -22 72 6 0 11 -8 12 -17 0 -11 3 -13 6 -5 2 6 11 12 19 12 8 0 14 4
14 10 0 5 7 7 16 3 13 -5 13 -7 2 -14z"/>
<path d="M3344 4158 c-42 -31 -134 -121 -134 -131 0 -4 24 -38 54 -75 67 -83
143 -201 175 -270 14 -28 27 -52 31 -52 3 0 35 17 71 39 128 78 156 151 100
265 -43 88 -112 179 -162 216 -50 36 -95 39 -135 8z"/>
<path d="M1270 3698 c-52 -35 -113 -160 -118 -242 -3 -38 1 -72 8 -86 15 -27
79 -56 146 -65 l51 -6 23 88 c12 48 38 126 56 172 19 47 34 87 34 90 0 14 -89
61 -125 66 -32 5 -47 2 -75 -17z"/>
<path d="M2885 3238 c-11 -6 -26 -18 -32 -26 -14 -17 -17 -69 -7 -97 8 -21 56
-45 89 -45 38 0 85 50 85 90 0 64 -78 110 -135 78z"/>
<path d="M2015 3105 c-38 -37 -35 -95 6 -129 58 -49 134 -20 146 56 5 32 1 41
-25 68 -39 39 -91 41 -127 5z"/>
<path d="M2462 3031 c-66 -11 -86 -38 -90 -118 -2 -55 1 -74 18 -101 46 -75
181 -83 251 -16 33 31 54 101 45 148 -8 40 -56 86 -89 86 -12 0 -38 2 -57 4
-19 3 -54 1 -78 -3z"/>
<path d="M5265 3728 c-3 -13 -4 -86 -3 -163 l3 -140 96 -3 c84 -2 97 0 113 17
22 24 14 57 -17 65 -12 3 -50 6 -84 6 l-63 0 0 80 0 80 64 0 c80 0 107 20 90
64 -5 13 -24 16 -100 16 -89 0 -94 -1 -99 -22z"/>
</g>
</svg>
